<svg id="visual" viewBox="0 0 540 960" width="540" height="960" xmlns="http://www.w3.org/2000/svg" xmlns:xlink="http://www.w3.org/1999/xlink" version="1.1"><rect x="0" y="0" width="540" height="960" fill="#ffffff"></rect><defs><linearGradient id="grad1_0" x1="0%" y1="0%" x2="100%" y2="100%"><stop offset="30%" stop-color="#2464b4" stop-opacity="1"></stop><stop offset="70%" stop-color="#2464b4" stop-opacity="1"></stop></linearGradient></defs><defs><linearGradient id="grad1_1" x1="0%" y1="0%" x2="100%" y2="100%"><stop offset="30%" stop-color="#2464b4" stop-opacity="1"></stop><stop offset="70%" stop-color="#ffffff" stop-opacity="1"></stop></linearGradient></defs><defs><linearGradient id="grad2_0" x1="0%" y1="0%" x2="100%" y2="100%"><stop offset="30%" stop-color="#2464b4" stop-opacity="1"></stop><stop offset="70%" stop-color="#2464b4" stop-opacity="1"></stop></linearGradient></defs><defs><linearGradient id="grad2_1" x1="0%" y1="0%" x2="100%" y2="100%"><stop offset="30%" stop-color="#ffffff" stop-opacity="1"></stop><stop offset="70%" stop-color="#2464b4" stop-opacity="1"></stop></linearGradient></defs><g transform="translate(540, 0)"><path d="M0 324C-35.2 322.6 -70.4 321.3 -100.1 308.1C-129.8 295 -154.1 270.1 -181 249.2C-208 228.2 -237.7 211.2 -255.6 185.7C-273.6 160.3 -279.7 126.3 -289.1 93.9C-298.5 61.6 -311.3 30.8 -324 0L0 0Z" fill="#9eaeda"></path><path d="M0 162C-17.6 161.3 -35.2 160.6 -50.1 154.1C-64.9 147.5 -77 135.1 -90.5 124.6C-104 114.1 -118.9 105.6 -127.8 92.9C-136.8 80.1 -139.8 63.2 -144.6 47C-149.3 30.8 -155.6 15.4 -162 0L0 0Z" fill="#2464b4"></path></g><g transform="translate(0, 960)"><path d="M0 -324C28.9 -307.7 57.7 -291.3 92.7 -285.3C127.7 -279.3 168.8 -283.7 190.4 -262.1C212.1 -240.6 214.2 -193 219.2 -159.3C224.3 -125.5 232.2 -105.5 250.1 -81.3C268.1 -57 296 -28.5 324 0L0 0Z" fill="#9eaeda"></path><path d="M0 -162C14.4 -153.8 28.9 -145.7 46.4 -142.7C63.8 -139.7 84.4 -141.8 95.2 -131.1C106 -120.3 107.1 -96.5 109.6 -79.6C112.1 -62.8 116.1 -52.8 125.1 -40.6C134 -28.5 148 -14.3 162 0L0 0Z" fill="#2464b4"></path></g></svg>